HIERARCHY
ROOT Hips
{
	OFFSET 0.000000 0.000000 0.000000
	CHANNELS 6 Xposition Yposition Zposition Zrotation Yrotation Xrotation 
	JOINT LowerBack
	{
		OFFSET 0.000000 0.000000 0.000000
		CHANNELS 3 Zrotation Yrotation Xrotation
		JOINT Spine
		{
			OFFSET 0.028270 2.035590 -0.193380
			CHANNELS 3 Zrotation Yrotation Xrotation
			JOINT Spine1
			{
				OFFSET 0.056720 2.048850 -0.042750
				CHANNELS 3 Zrotation Yrotation Xrotation
				JOINT Neck
				{
					OFFSET 0.000000 0.000000 0.000000
					CHANNELS 3 Zrotation Yrotation Xrotation
					JOINT Neck1
					{
						OFFSET -0.054170 1.746240 0.172020
						CHANNELS 3 Zrotation Yrotation Xrotation
						JOINT Head
						{
							OFFSET 0.104070 1.761360 -0.123970
							CHANNELS 3 Zrotation Yrotation Xrotation
							End Site
							{
								OFFSET 0.000000 0.000000 0.000000
							}
						}
					}
				}
				JOINT LeftShoulder
				{
					OFFSET 0.000000 0.000000 0.000000
					CHANNELS 3 Zrotation Yrotation Xrotation
					JOINT LeftArm
					{
						OFFSET 3.362410 1.200890 -0.311210
						CHANNELS 3 Zrotation Yrotation Xrotation
						JOINT LeftForeArm
						{
							OFFSET 4.983000 -0.000000 -0.000000
							CHANNELS 3 Zrotation Yrotation Xrotation
							JOINT LeftHand
							{
								OFFSET 3.483560 -0.000000 -0.000000
								CHANNELS 3 Zrotation Yrotation Xrotation
								JOINT LeftFingerBase
								{
									OFFSET 0.000000 0.000000 0.000000
									CHANNELS 3 Zrotation Yrotation Xrotation
									JOINT LeftHandIndex1
									{
										OFFSET 0.715260 -0.000000 -0.000000
										CHANNELS 3 Zrotation Yrotation Xrotation
										End Site
										{
											OFFSET 0.000000 0.000000 0.000000
										}
									}
								}
								JOINT LThumb
								{
									OFFSET 0.000000 0.000000 0.000000
									CHANNELS 3 Zrotation Yrotation Xrotation
									End Site
									{
										OFFSET 0.000000 0.000000 0.000000
									}
								}
							}
						}
					}
				}
				JOINT RightShoulder
				{
					OFFSET 0.000000 0.000000 0.000000
					CHANNELS 3 Zrotation Yrotation Xrotation
					JOINT RightArm
					{
						OFFSET -3.136600 1.374050 -0.404650
						CHANNELS 3 Zrotation Yrotation Xrotation
						JOINT RightForeArm
						{
							OFFSET -5.241900 -0.000000 -0.000000
							CHANNELS 3 Zrotation Yrotation Xrotation
							JOINT RightHand
							{
								OFFSET -3.444170 -0.000000 -0.000000
								CHANNELS 3 Zrotation Yrotation Xrotation
								JOINT RightFingerBase
								{
									OFFSET 0.000000 0.000000 0.000000
									CHANNELS 3 Zrotation Yrotation Xrotation
									JOINT RightHandIndex1
									{
										OFFSET -0.622530 -0.000000 -0.000000
										CHANNELS 3 Zrotation Yrotation Xrotation
										End Site
										{
											OFFSET 0.000000 0.000000 0.000000
										}
									}
								}
								JOINT RThumb
								{
									OFFSET 0.000000 0.000000 0.000000
									CHANNELS 3 Zrotation Yrotation Xrotation
									End Site
									{
										OFFSET 0.000000 0.000000 0.000000
									}
								}
							}
						}
					}
				}
			}
		}
	}
}
}
MOTION
Frames: 15
Frame Time: 0.008333
7.038327 21.142251 1.122100 67.675616 -84.703003 -30.264874 -2.271358 -1.427363 -4.661160 -0.851577 -1.339158 -3.343460 -3.599139 -1.424043 1.608360 4.931552 -5.809486 -4.469240 -1.691816 -0.162846 0.739463 0.000000 0.000000 0.000000 6.480294 -2.524175 1.913420 -30.196894 -25.275259 -4.508477 -0.646808 -63.737442 -0.048584 7.329554 -1.094700 -0.098500 -0.172497 0.422401 0.000000 0.000000 0.000000 0.000000 0.000000 0.000000 0.000000 5.258773 -3.365019 3.851343 22.765572 38.323384 -0.998737 1.801534 36.126461 -0.006816 -3.611655 3.865938 -0.135619 0.146391 -0.280810 0.000000 0.000000 0.000000 0.000000 0.000000 0.000000 0.000000 
6.917913 21.258810 1.112393 68.071848 -84.761819 -29.442289 -2.212549 -1.479007 -4.395964 -0.814139 -1.392593 -3.279620 -3.454791 -1.481131 1.671546 4.821576 -5.985729 -4.681241 -1.555343 -0.149313 0.663872 0.000000 0.000000 0.000000 6.621574 -2.635807 2.077121 -28.940433 -25.171308 -4.535208 -0.692299 -62.841465 -0.046546 7.087225 -0.944565 -0.085347 -0.174817 0.416099 0.000000 0.000000 0.000000 0.000000 0.000000 0.000000 0.000000 4.839937 -3.473341 3.971956 20.842927 38.104344 -0.740508 1.836644 36.181703 -0.005763 -3.366795 3.726477 -0.122543 0.148495 -0.278643 0.000000 0.000000 0.000000 0.000000 0.000000 0.000000 0.000000 
6.794900 21.357324 1.104795 68.420427 -84.828074 -28.395721 -2.118160 -1.532017 -4.285778 -0.764568 -1.451363 -3.243531 -3.298168 -1.544974 1.769066 4.673973 -6.238854 -4.902445 -1.407215 -0.134745 0.586088 0.000000 0.000000 0.000000 6.791484 -2.667056 2.244423 -27.409297 -24.906180 -4.369311 -0.736212 -62.200997 -0.043878 6.756551 -0.749980 -0.069289 -0.176801 0.408137 0.000000 0.000000 0.000000 0.000000 0.000000 0.000000 0.000000 4.359056 -3.657542 4.075664 18.668615 37.743571 -0.165220 1.859483 36.654656 -0.004844 -3.165395 3.596874 -0.111761 0.151133 -0.275922 0.000000 0.000000 0.000000 0.000000 0.000000 0.000000 0.000000 
6.668485 21.437706 1.099241 68.774411 -84.900793 -27.195263 -1.993945 -1.583686 -4.324688 -0.704586 -1.512117 -3.236475 -3.133309 -1.612215 1.895504 4.499852 -6.558909 -5.128596 -1.250613 -0.119382 0.507217 0.000000 0.000000 0.000000 6.967729 -2.598396 2.415203 -25.635523 -24.490158 -4.056605 -0.777482 -61.810803 -0.040892 6.372820 -0.530952 -0.052323 -0.178645 0.399114 0.000000 0.000000 0.000000 0.000000 0.000000 0.000000 0.000000 3.834254 -3.909948 4.158861 16.287704 37.193024 0.568908 1.862797 37.572933 -0.004241 -3.032332 3.469244 -0.103674 0.154221 -0.273237 0.000000 0.000000 0.000000 0.000000 0.000000 0.000000 0.000000 
6.538240 21.500564 1.095504 69.164272 -84.979065 -25.900941 -1.846729 -1.632497 -4.488113 -0.636566 -1.572586 -3.255192 -2.965045 -1.680351 2.044794 4.314291 -6.951999 -5.360820 -1.089254 -0.103412 0.426611 0.000000 0.000000 0.000000 7.141378 -2.411451 2.588085 -23.670134 -23.941722 -3.657516 -0.814605 -61.644888 -0.037899 5.971452 -0.300761 -0.036254 -0.180517 0.389656 0.000000 0.000000 0.000000 0.000000 0.000000 0.000000 0.000000 3.293509 -4.238123 4.219361 13.745848 36.446731 1.294886 1.841472 38.905154 -0.004139 -3.001792 3.341505 -0.099285 0.157969 -0.271270 0.000000 0.000000 0.000000 0.000000 0.000000 0.000000 0.000000 
6.404001 21.547010 1.093135 69.611567 -85.060700 -24.572271 -1.685625 -1.678190 -4.739319 -0.563491 -1.631539 -3.293485 -2.797573 -1.747802 2.209167 4.132745 -7.423530 -5.601986 -0.925889 -0.086923 0.342976 0.000000 0.000000 0.000000 7.315924 -2.092161 2.761897 -21.580138 -23.282065 -3.235348 -0.846646 -61.660787 -0.035156 5.581382 -0.062287 -0.021483 -0.182581 0.380285 0.000000 0.000000 0.000000 0.000000 0.000000 0.000000 0.000000 2.761038 -4.645877 4.255932 11.111913 35.504368 1.847315 1.794216 40.589416 -0.004681 -3.093151 3.199485 -0.098192 0.162598 -0.270496 0.000000 0.000000 0.000000 0.000000 0.000000 0.000000 0.000000 
6.265523 21.577896 1.091591 70.125333 -85.142688 -23.258785 -1.520695 -1.721789 -5.035243 -0.488711 -1.688962 -3.342956 -2.634771 -1.814134 2.380921 3.970350 -7.978726 -5.856201 -0.762765 -0.069942 0.254568 0.000000 0.000000 0.000000 7.504608 -1.631189 2.935466 -19.441676 -22.529530 -2.848250 -0.873525 -61.810734 -0.032839 5.221398 0.190331 -0.007714 -0.184950 0.371359 0.000000 0.000000 0.000000 0.000000 0.000000 0.000000 0.000000 2.259223 -5.135333 4.268830 8.464240 34.373081 2.096567 1.723939 42.546151 -0.005965 -3.309607 3.019062 -0.099502 0.168312 -0.271031 0.000000 0.000000 0.000000 0.000000 0.000000 0.000000 0.000000 
6.122722 21.595225 1.090202 70.697592 -85.221951 -21.994347 -1.359806 -1.766017 -5.331154 -0.415202 -1.746749 -3.393614 -2.480706 -1.880793 2.554224 3.842025 -8.627401 -6.129196 -0.601942 -0.052455 0.159159 0.000000 0.000000 0.000000 7.724672 -1.021157 3.107426 -17.330343 -21.698032 -2.544260 -0.895830 -62.051203 -0.031021 4.896744 0.468389 0.005453 -0.187586 0.363074 0.000000 0.000000 0.000000 0.000000 0.000000 0.000000 0.000000 1.811272 -5.714119 4.259852 5.868119 33.079486 1.969679 1.636434 44.684643 -0.008048 -3.645862 2.780691 -0.101516 0.175314 -0.272721 0.000000 0.000000 0.000000 0.000000 0.000000 0.000000 0.000000 
5.975533 21.600030 1.088274 71.312673 -85.296326 -20.804343 -1.210445 -1.813675 -5.587869 -0.345620 -1.806943 -3.436426 -2.338097 -1.949434 2.723032 3.757347 -9.364040 -6.423884 -0.444291 -0.034416 0.055437 0.000000 0.000000 0.000000 7.992848 -0.266869 3.277124 -15.319425 -20.785414 -2.356977 -0.914784 -62.351753 -0.029639 4.594703 0.779788 0.018414 -0.190209 0.355529 0.000000 0.000000 0.000000 0.000000 0.000000 0.000000 0.000000 1.427290 -6.373485 4.232443 3.402547 31.631117 1.434925 1.538946 46.934228 -0.010909 -4.070087 2.455773 -0.101035 0.183442 -0.275053 0.000000 0.000000 0.000000 0.000000 0.000000 0.000000 0.000000 
5.823736 21.593901 1.085297 71.913396 -85.364454 -19.661825 -1.071090 -1.869831 -5.775830 -0.280782 -1.874756 -3.463298 -2.211519 -2.024946 2.885067 3.725110 -10.188946 -6.741289 -0.292562 -0.015967 -0.057265 0.000000 0.000000 0.000000 8.317696 0.624780 3.441690 -13.466729 -19.769975 -2.304197 -0.930631 -62.707912 -0.028695 4.313661 1.133116 0.031570 -0.192739 0.348713 0.000000 0.000000 0.000000 0.000000 0.000000 0.000000 0.000000 1.127950 -7.117186 4.190679 1.090920 30.070668 0.527981 1.437797 49.225829 -0.014494 -4.563557 2.051298 -0.096357 0.192638 -0.277628 0.000000 0.000000 0.000000 0.000000 0.000000 0.000000 0.000000 
5.668341 21.578786 1.081932 71.951385 -85.391910 -18.043002 -0.913219 -1.948157 -5.871754 -0.211502 -1.965378 -3.468895 -2.096889 -2.122474 3.034417 3.728530 -11.075131 -7.081266 -0.143524 0.003181 -0.179305 0.000000 0.000000 0.000000 8.695089 1.622550 3.602029 -11.844936 -18.635439 -2.410619 -0.944642 -63.107878 -0.027832 4.008212 1.503905 0.043226 -0.194175 0.343260 0.000000 0.000000 0.000000 0.000000 0.000000 0.000000 0.000000 0.874374 -7.920082 4.138977 -0.980514 28.391744 -0.727448 1.340154 51.510301 -0.018563 -5.061561 1.558093 -0.084188 0.202131 -0.279905 0.000000 0.000000 0.000000 0.000000 0.000000 0.000000 0.000000 
5.507458 21.555321 1.074807 72.801065 -85.481897 -17.352084 -0.812647 -2.018098 -5.871300 -0.163304 -2.044051 -3.450963 -2.005721 -2.206710 3.168067 3.795790 -11.989420 -7.430022 -0.003428 0.022268 -0.306350 0.000000 0.000000 0.000000 9.146206 2.674008 3.750696 -10.472507 -17.266091 -2.651585 -0.955594 -63.608545 -0.027004 3.682483 1.890182 0.053076 -0.194790 0.338504 0.000000 0.000000 0.000000 0.000000 0.000000 0.000000 0.000000 0.717668 -8.739071 4.087656 -2.782759 26.614810 -2.220444 1.248637 53.773165 -0.022864 -5.526976 1.007375 -0.064323 0.211258 -0.281764 0.000000 0.000000 0.000000 0.000000 0.000000 0.000000 0.000000 
5.340090 21.523178 1.066044 73.169974 -85.547808 -16.320476 -0.702113 -2.109983 -5.781379 -0.114692 -2.145248 -3.411077 -1.931217 -2.312482 3.284734 3.892845 -12.903539 -7.776768 0.129071 0.041137 -0.434534 0.000000 0.000000 0.000000 9.647836 3.712248 3.883991 -9.429042 -15.620254 -3.017313 -0.961931 -64.225812 -0.025771 3.294743 2.241051 0.058529 -0.193395 0.335455 0.000000 0.000000 0.000000 0.000000 0.000000 0.000000 0.000000 0.605785 -9.565097 4.036973 -4.279492 24.757618 -3.842808 1.166508 55.980485 -0.026962 -5.906255 0.436118 -0.038261 0.219171 -0.282929 0.000000 0.000000 0.000000 0.000000 0.000000 0.000000 0.000000 
5.167276 21.483914 1.055992 73.055824 -85.605932 -14.935960 -0.571842 -2.219015 -5.628212 -0.062594 -2.264737 -3.356800 -1.870313 -2.435767 3.379626 3.997682 -13.772991 -8.107384 0.254364 0.059461 -0.558983 0.000000 0.000000 0.000000 10.193063 4.643172 3.997821 -8.755361 -13.601495 -3.505899 -0.961682 -64.995491 -0.023947 2.840645 2.522224 0.058388 -0.189923 0.334532 0.000000 0.000000 0.000000 0.000000 0.000000 0.000000 0.000000 0.502536 -10.351134 3.994039 -5.444464 22.827339 -5.488357 1.095156 58.114129 -0.030465 -6.162080 -0.103755 -0.009799 0.225270 -0.283794 0.000000 0.000000 0.000000 0.000000 0.000000 0.000000 0.000000 
4.988975 21.438183 1.044266 72.762255 -85.677127 -13.497166 -0.441735 -2.336383 -5.441611 -0.012447 -2.392541 -3.297069 -1.820875 -2.566707 3.448010 4.098416 -14.552518 -8.403405 0.370246 0.076573 -0.673071 0.000000 0.000000 0.000000 10.787530 5.343780 4.087298 -8.483513 -11.088471 -4.108520 -0.952178 -65.960025 -0.021345 2.317364 2.699795 0.052055 -0.184388 0.335929 0.000000 0.000000 0.000000 0.000000 0.000000 0.000000 0.000000 0.392772 -11.047642 3.966007 -6.266623 20.824658 -7.036688 1.034160 60.171885 -0.033024 -6.270929 -0.564025 0.016065 0.229155 -0.284761 0.000000 0.000000 0.000000 0.000000 0.000000 0.000000 0.000000 
